<svg id="Layer_1" data-name="Layer 1" xmlns="http://www.w3.org/2000/svg" viewBox="0 0 354.14 266.5"><defs><style>.cls-1{fill:#1c2240;}</style></defs><title>Gap_newlogo</title><path class="cls-1" d="M332.1,18.53H284.68v4.14h12.49V267.46c-.3,5.3-2.29,7.18-10,7.48h-2.52v4.46h53.46v-4.46h-5.62c-9-.32-12.28-3.95-12.44-11.72V164.78h15.57c22.66,0,35.57-10.86,35.57-25.4V46.12C371.22,31.58,360.1,18.51,332.1,18.53Zm16.37,125.55c0,8.13-5.24,15.62-15.29,15.56h-13.1v-137H332c11.21,0,16.45,9.52,16.45,16.77Z" transform="translate(-17.09 -16)"/><path class="cls-1" d="M230.93,263v.2L200.72,18.48H180.47L151.12,260.65c-1.73,8.7-2.61,14-16.41,14.26v4.47H170.4v-4.47c-10.1,0-14.67-5.83-13.67-12.07l11.9-98.24h27.75l12.49,101.52c0,6.09-.65,8.33-8,8.79h-3.52v4.47H244.9v-4.47h-1.26C234.5,274.46,231.51,268.85,230.93,263ZM169.17,160l12.5-105,14.15,105Z" transform="translate(-17.09 -16)"/><path class="cls-1" d="M53.55,164.67h14v98.44c0,8.55-6.43,15.08-14.52,15.08-7.83,0-13.86-6.69-13.86-15.08V40.78c0-6,1.23-20.12,11.51-20,8.47.05,14.37,7.79,17.1,19.57C70.63,52.66,72.41,82.51,72.41,95c0,4.24,1.57,5.68,6.21,5.68h8.93V18.36H81.17v3.52c0,4.19-2.68,3.86-4.84,2.52-7.73-4.95-17.2-8.5-25.64-8.4-13.76.06-33.55,6.12-33.6,32.48V242.35C17.34,276,35.2,282.29,52.78,282.5c13.67.06,20.24-6.46,25.75-8.67,2.92-1.14,6.14,1.55,6.14,6.52h5.68V164.67h11.44v-4.8H53.55Z" transform="translate(-17.09 -16)"/></svg>