<?xml version="1.0" encoding="utf-8"?>
<!-- Generator: Adobe Illustrator 24.0.0, SVG Export Plug-In . SVG Version: 6.00 Build 0)  -->
<svg version="1.1" xmlns="http://www.w3.org/2000/svg" xmlns:xlink="http://www.w3.org/1999/xlink" x="0px" y="0px"
	 viewBox="0 0 209 38" style="enable-background:new 0 0 209 38;" xml:space="preserve">
<style type="text/css">
	.Arched_x0020_Green{fill:url(#SVGID_1_);stroke:#FFFFFF;stroke-width:0.25;stroke-miterlimit:1;}
	.st0{fill:#B2B2B2;}
	.st1{fill:#575756;}
</style>
<linearGradient id="SVGID_1_" gradientUnits="userSpaceOnUse" x1="-375.5336" y1="334.2469" x2="-374.8265" y2="333.5398">
	<stop  offset="0" style="stop-color:#20A23A"/>
	<stop  offset="0.9831" style="stop-color:#25381D"/>
</linearGradient>
<g id="Layer_1">
</g>
<g id="Clearance_Guides">
	<g>
		<rect x="112.09" class="st0" width="0.71" height="32.62"/>
		<g>
			<path class="st1" d="M129.96,11.87h-1.3l-3.07-8.12v8.12h-1.43V0h1.33l3.03,8.12V0h1.43V11.87z"/>
			<path class="st1" d="M134.16,3.1c0.39,0,0.74,0.06,1.04,0.18c0.31,0.12,0.57,0.33,0.79,0.62c0.27,0.34,0.44,0.82,0.51,1.43
				c0.07,0.61,0.11,1.35,0.11,2.23c0,0.88-0.04,1.62-0.11,2.23c-0.07,0.61-0.24,1.08-0.51,1.43c-0.22,0.29-0.49,0.49-0.79,0.62
				c-0.31,0.12-0.65,0.18-1.04,0.18c-0.39,0-0.73-0.06-1.03-0.18c-0.3-0.12-0.56-0.33-0.78-0.62c-0.27-0.34-0.44-0.82-0.52-1.43
				c-0.08-0.61-0.12-1.35-0.12-2.23c0-0.88,0.04-1.62,0.12-2.23c0.08-0.61,0.25-1.08,0.52-1.43c0.22-0.29,0.48-0.49,0.78-0.62
				C133.43,3.16,133.77,3.1,134.16,3.1z M134.16,4.3c-0.32,0-0.57,0.13-0.75,0.38c-0.16,0.22-0.25,0.56-0.29,1.02
				c-0.04,0.46-0.06,1.07-0.06,1.85c0,0.78,0.02,1.39,0.06,1.85c0.04,0.46,0.14,0.79,0.29,1.02c0.18,0.26,0.43,0.38,0.75,0.38
				c0.33,0,0.59-0.13,0.77-0.38c0.16-0.22,0.25-0.56,0.28-1.02c0.03-0.46,0.05-1.07,0.05-1.85c0-0.78-0.02-1.39-0.05-1.85
				c-0.03-0.46-0.13-0.79-0.28-1.02C134.75,4.43,134.5,4.3,134.16,4.3z"/>
			<path class="st1" d="M143.55,3.1c0.39,0,0.74,0.06,1.04,0.18c0.31,0.12,0.57,0.33,0.79,0.62c0.27,0.34,0.44,0.82,0.51,1.43
				c0.07,0.61,0.11,1.35,0.11,2.23c0,0.88-0.04,1.62-0.11,2.23c-0.07,0.61-0.24,1.08-0.51,1.43c-0.22,0.29-0.49,0.49-0.79,0.62
				c-0.31,0.12-0.65,0.18-1.04,0.18c-0.39,0-0.73-0.06-1.03-0.18c-0.3-0.12-0.56-0.33-0.78-0.62c-0.27-0.34-0.44-0.82-0.52-1.43
				c-0.08-0.61-0.12-1.35-0.12-2.23c0-0.88,0.04-1.62,0.12-2.23c0.08-0.61,0.25-1.08,0.52-1.43c0.22-0.29,0.48-0.49,0.78-0.62
				C142.82,3.16,143.16,3.1,143.55,3.1z M143.55,4.3c-0.32,0-0.57,0.13-0.75,0.38c-0.16,0.22-0.25,0.56-0.29,1.02
				c-0.04,0.46-0.06,1.07-0.06,1.85c0,0.78,0.02,1.39,0.06,1.85c0.04,0.46,0.14,0.79,0.29,1.02c0.18,0.26,0.43,0.38,0.75,0.38
				c0.33,0,0.59-0.13,0.77-0.38c0.16-0.22,0.25-0.56,0.28-1.02c0.03-0.46,0.05-1.07,0.05-1.85c0-0.78-0.02-1.39-0.05-1.85
				c-0.03-0.46-0.13-0.79-0.28-1.02C144.14,4.43,143.88,4.3,143.55,4.3z"/>
			<path class="st1" d="M150.4,3.1c0.32,0,0.6,0.05,0.83,0.16c0.23,0.11,0.44,0.26,0.63,0.48c0.18,0.19,0.31,0.42,0.39,0.68
				c0.08,0.27,0.12,0.63,0.12,1.1v6.35h-1.35V5.52c0-0.39-0.1-0.69-0.3-0.9c-0.2-0.21-0.44-0.32-0.73-0.32
				c-0.29,0-0.53,0.11-0.73,0.32c-0.19,0.21-0.29,0.51-0.29,0.9v6.35h-1.35V3.23h1.3V3.9c0.06-0.1,0.14-0.2,0.24-0.3
				c0.11-0.1,0.2-0.18,0.29-0.23C149.76,3.19,150.07,3.1,150.4,3.1z"/>
			<path class="st1" d="M155.3,7.87c0,0.69,0.02,1.24,0.06,1.65c0.04,0.41,0.14,0.71,0.29,0.9c0.08,0.11,0.18,0.2,0.31,0.27
				c0.13,0.07,0.28,0.1,0.46,0.1c0.16,0,0.29-0.03,0.42-0.08c0.12-0.05,0.24-0.14,0.35-0.26c0.11-0.12,0.19-0.27,0.23-0.43
				c0.04-0.17,0.06-0.36,0.06-0.57h1.35c-0.01,0.4-0.07,0.76-0.18,1.07c-0.11,0.31-0.28,0.59-0.53,0.85
				c-0.41,0.42-0.98,0.63-1.7,0.63c-0.37,0-0.69-0.05-0.97-0.15c-0.28-0.1-0.53-0.27-0.75-0.52c-0.32-0.34-0.53-0.84-0.63-1.48
				c-0.09-0.64-0.14-1.41-0.14-2.31c0-0.91,0.04-1.68,0.13-2.32c0.09-0.63,0.29-1.12,0.62-1.47c0.22-0.24,0.47-0.42,0.75-0.52
				c0.28-0.1,0.59-0.15,0.95-0.15c0.36,0,0.67,0.05,0.95,0.15c0.28,0.1,0.53,0.27,0.75,0.52c0.32,0.34,0.53,0.85,0.63,1.51
				c0.09,0.66,0.14,1.53,0.14,2.59H155.3z M157.49,6.85c0-0.63-0.02-1.12-0.07-1.45c-0.04-0.33-0.13-0.58-0.27-0.73
				c-0.09-0.11-0.19-0.2-0.31-0.26c-0.12-0.06-0.27-0.09-0.46-0.09c-0.19,0-0.34,0.03-0.45,0.09c-0.11,0.06-0.21,0.15-0.3,0.26
				c-0.13,0.16-0.22,0.4-0.27,0.73c-0.04,0.33-0.07,0.82-0.07,1.45H157.49z"/>
			<path class="st1" d="M165.42,3.1c0.38,0,0.69,0.09,0.93,0.27c0.09,0.06,0.18,0.13,0.27,0.21c0.09,0.08,0.17,0.17,0.23,0.26v-0.6
				h1.3v8.94c0,0.63-0.06,1.13-0.17,1.49c-0.11,0.36-0.29,0.67-0.53,0.93c-0.19,0.2-0.44,0.36-0.74,0.48
				c-0.31,0.12-0.63,0.18-0.96,0.18c-0.33,0-0.65-0.05-0.94-0.15c-0.29-0.1-0.55-0.26-0.78-0.47c-0.24-0.24-0.42-0.52-0.52-0.83
				c-0.1-0.31-0.15-0.66-0.15-1.03h1.35c0,0.22,0.02,0.42,0.06,0.58c0.04,0.17,0.12,0.32,0.24,0.45c0.09,0.1,0.19,0.17,0.32,0.21
				c0.12,0.04,0.26,0.06,0.42,0.06c0.31,0,0.56-0.1,0.73-0.3c0.12-0.13,0.21-0.32,0.25-0.56c0.04-0.24,0.07-0.56,0.07-0.96v-1.25
				c-0.12,0.19-0.28,0.35-0.47,0.48c-0.26,0.19-0.56,0.28-0.92,0.28c-0.57,0-1.03-0.22-1.4-0.65c-0.13-0.16-0.24-0.34-0.33-0.54
				c-0.09-0.21-0.16-0.45-0.21-0.74c-0.05-0.29-0.09-0.63-0.11-1.03c-0.02-0.39-0.03-0.85-0.03-1.38c0-0.53,0.01-0.99,0.03-1.38
				c0.02-0.39,0.06-0.73,0.11-1.03c0.05-0.29,0.12-0.54,0.21-0.75c0.09-0.21,0.2-0.39,0.33-0.54c0.19-0.21,0.39-0.37,0.62-0.47
				C164.86,3.15,165.12,3.1,165.42,3.1z M165.77,4.3c-0.16,0-0.29,0.03-0.42,0.1c-0.12,0.07-0.23,0.16-0.32,0.27
				c-0.08,0.09-0.14,0.2-0.18,0.34c-0.04,0.14-0.08,0.32-0.11,0.53c-0.03,0.22-0.04,0.48-0.05,0.78c-0.01,0.31-0.01,0.68-0.01,1.11
				c0,0.43,0,0.8,0.01,1.11c0.01,0.31,0.02,0.57,0.05,0.78c0.03,0.22,0.06,0.39,0.11,0.53c0.04,0.14,0.11,0.25,0.18,0.34
				c0.09,0.1,0.19,0.18,0.32,0.25c0.12,0.07,0.26,0.1,0.42,0.1c0.28,0,0.52-0.09,0.72-0.27c0.21-0.21,0.32-0.54,0.32-1V5.57
				c0-0.44-0.11-0.77-0.32-0.98C166.3,4.4,166.06,4.3,165.77,4.3z"/>
			<path class="st1" d="M171.14,7.87c0,0.69,0.02,1.24,0.06,1.65c0.04,0.41,0.14,0.71,0.29,0.9c0.08,0.11,0.18,0.2,0.31,0.27
				c0.13,0.07,0.28,0.1,0.46,0.1c0.16,0,0.29-0.03,0.42-0.08c0.12-0.05,0.24-0.14,0.35-0.26c0.11-0.12,0.19-0.27,0.23-0.43
				c0.04-0.17,0.06-0.36,0.06-0.57h1.35c-0.01,0.4-0.07,0.76-0.18,1.07c-0.11,0.31-0.28,0.59-0.53,0.85
				c-0.41,0.42-0.98,0.63-1.7,0.63c-0.37,0-0.69-0.05-0.97-0.15c-0.28-0.1-0.53-0.27-0.75-0.52c-0.32-0.34-0.53-0.84-0.63-1.48
				c-0.09-0.64-0.14-1.41-0.14-2.31c0-0.91,0.04-1.68,0.13-2.32c0.09-0.63,0.29-1.12,0.62-1.47c0.22-0.24,0.47-0.42,0.75-0.52
				c0.28-0.1,0.59-0.15,0.95-0.15c0.36,0,0.67,0.05,0.95,0.15c0.28,0.1,0.53,0.27,0.75,0.52c0.32,0.34,0.53,0.85,0.63,1.51
				c0.09,0.66,0.14,1.53,0.14,2.59H171.14z M173.32,6.85c0-0.63-0.02-1.12-0.07-1.45c-0.04-0.33-0.13-0.58-0.27-0.73
				c-0.09-0.11-0.19-0.2-0.31-0.26c-0.12-0.06-0.27-0.09-0.46-0.09c-0.19,0-0.34,0.03-0.45,0.09c-0.11,0.06-0.21,0.15-0.3,0.26
				c-0.13,0.16-0.22,0.4-0.27,0.73c-0.04,0.33-0.07,0.82-0.07,1.45H173.32z"/>
			<path class="st1" d="M179.38,11.87c-0.39,0-0.75-0.03-1.08-0.09c-0.33-0.06-0.63-0.21-0.91-0.44c-0.5-0.41-0.75-1.06-0.75-1.93
				V4.28h-0.98V3.23h0.98V0.87h1.35v2.37h1.33v1.05h-1.33v5.07c0,0.47,0.12,0.8,0.35,1c0.23,0.2,0.58,0.3,1.03,0.3V11.87z"/>
			<path class="st1" d="M182.69,3.1c0.71,0,1.27,0.21,1.68,0.62c0.47,0.44,0.7,1.08,0.7,1.9h-1.33c0-0.26-0.03-0.46-0.08-0.62
				c-0.05-0.16-0.13-0.29-0.24-0.42c-0.1-0.11-0.21-0.19-0.34-0.23c-0.13-0.04-0.26-0.07-0.39-0.07c-0.31,0-0.56,0.09-0.75,0.28
				c-0.21,0.21-0.32,0.49-0.32,0.83c0,0.24,0.05,0.46,0.15,0.63c0.12,0.21,0.36,0.4,0.72,0.57l1.1,0.55
				c0.58,0.28,0.98,0.61,1.22,0.98c0.24,0.37,0.37,0.83,0.37,1.38c0,0.39-0.07,0.73-0.2,1.03c-0.13,0.29-0.31,0.55-0.53,0.78
				c-0.23,0.24-0.5,0.42-0.79,0.53c-0.29,0.11-0.62,0.16-0.98,0.16c-0.36,0-0.68-0.06-0.98-0.17c-0.29-0.11-0.55-0.28-0.76-0.5
				c-0.49-0.5-0.73-1.13-0.73-1.9h1.33c0,0.44,0.12,0.79,0.37,1.05c0.1,0.1,0.22,0.18,0.36,0.23c0.14,0.05,0.28,0.08,0.41,0.08
				c0.33,0,0.61-0.11,0.82-0.32c0.22-0.22,0.33-0.51,0.33-0.87c0-0.3-0.07-0.56-0.22-0.78c-0.09-0.12-0.19-0.23-0.32-0.33
				c-0.12-0.1-0.27-0.19-0.45-0.28l-1.12-0.57c-0.56-0.28-0.95-0.61-1.18-1c-0.18-0.31-0.27-0.69-0.27-1.13
				c0-0.38,0.06-0.71,0.19-0.99c0.13-0.28,0.3-0.54,0.53-0.76c0.22-0.22,0.48-0.39,0.77-0.49C182.05,3.15,182.36,3.1,182.69,3.1z"/>
		</g>
		<g>
			<path class="st1" d="M128.36,21.24c0.28,0.33,0.45,0.8,0.53,1.4c0.07,0.6,0.11,1.41,0.11,2.42c0,1.02-0.04,1.83-0.11,2.43
				c-0.07,0.59-0.25,1.06-0.53,1.39c-0.19,0.22-0.4,0.38-0.63,0.48c-0.23,0.1-0.5,0.15-0.8,0.15c-0.37,0-0.68-0.09-0.93-0.27
				c-0.09-0.06-0.18-0.13-0.26-0.21c-0.08-0.08-0.16-0.17-0.23-0.26v3.83h-1.35V20.74h1.32v0.67c0.06-0.09,0.13-0.19,0.23-0.29
				c0.1-0.11,0.19-0.19,0.28-0.24c0.13-0.09,0.28-0.16,0.43-0.2c0.15-0.04,0.32-0.07,0.51-0.07
				C127.51,20.61,127.98,20.82,128.36,21.24z M125.84,22.09c-0.22,0.22-0.33,0.56-0.33,1v3.95c0,0.23,0.03,0.43,0.08,0.58
				c0.06,0.16,0.14,0.29,0.25,0.4c0.19,0.19,0.42,0.28,0.7,0.28c0.16,0,0.29-0.03,0.42-0.1c0.12-0.07,0.23-0.16,0.32-0.27
				c0.08-0.09,0.14-0.21,0.19-0.35c0.05-0.14,0.09-0.33,0.11-0.55c0.02-0.22,0.04-0.49,0.05-0.82c0.01-0.32,0.02-0.71,0.02-1.17
				c0-0.44-0.01-0.83-0.02-1.15c-0.01-0.32-0.03-0.6-0.05-0.83c-0.02-0.23-0.06-0.41-0.11-0.56c-0.05-0.14-0.11-0.26-0.19-0.35
				c-0.09-0.11-0.19-0.2-0.32-0.27c-0.12-0.07-0.26-0.1-0.42-0.1C126.27,21.81,126.03,21.91,125.84,22.09z"/>
			<path class="st1" d="M132.68,20.61c0.72,0,1.28,0.2,1.68,0.6c0.21,0.22,0.38,0.48,0.5,0.78c0.12,0.3,0.18,0.67,0.18,1.12v6.27
				h-1.28v-0.77c-0.07,0.12-0.14,0.23-0.23,0.33c-0.09,0.1-0.18,0.18-0.27,0.25c-0.13,0.1-0.28,0.18-0.43,0.23
				c-0.16,0.06-0.35,0.08-0.58,0.08c-0.32,0-0.6-0.05-0.83-0.16c-0.23-0.11-0.45-0.27-0.65-0.49c-0.17-0.19-0.3-0.44-0.4-0.77
				c-0.1-0.32-0.15-0.71-0.15-1.17c0-0.4,0.06-0.77,0.19-1.11c0.13-0.34,0.32-0.62,0.58-0.84c0.22-0.19,0.47-0.33,0.74-0.43
				c0.27-0.1,0.64-0.15,1.09-0.15h0.88v-1.37c0-0.82-0.34-1.23-1.02-1.23c-0.16,0-0.28,0.02-0.38,0.07
				c-0.1,0.05-0.19,0.12-0.28,0.21c-0.12,0.12-0.21,0.26-0.25,0.42c-0.04,0.16-0.07,0.35-0.07,0.58h-1.35
				c0-0.33,0.05-0.66,0.14-0.98c0.09-0.32,0.27-0.6,0.53-0.86c0.19-0.19,0.43-0.34,0.73-0.46
				C132.03,20.67,132.35,20.61,132.68,20.61z M132.93,25.38c-0.21,0-0.39,0.02-0.54,0.07c-0.15,0.04-0.29,0.13-0.43,0.25
				c-0.12,0.12-0.22,0.29-0.29,0.51c-0.07,0.22-0.11,0.44-0.11,0.68c0,0.46,0.09,0.81,0.26,1.07c0.17,0.26,0.44,0.38,0.79,0.38
				c0.32,0,0.58-0.13,0.78-0.38c0.2-0.25,0.3-0.58,0.3-0.98v-1.6H132.93z"/>
			<path class="st1" d="M140.2,21.91h-0.4c-0.47,0-0.84,0.14-1.13,0.42c-0.29,0.28-0.43,0.67-0.43,1.17v5.89h-1.35v-8.64h1.3v0.92
				c0.07-0.12,0.16-0.24,0.27-0.34c0.11-0.11,0.22-0.2,0.33-0.28c0.41-0.29,0.88-0.43,1.42-0.43V21.91z"/>
			<path class="st1" d="M142.5,25.38c0,0.69,0.02,1.24,0.06,1.65c0.04,0.41,0.14,0.71,0.29,0.9c0.08,0.11,0.18,0.2,0.31,0.27
				c0.13,0.07,0.28,0.1,0.46,0.1c0.16,0,0.29-0.03,0.42-0.08c0.12-0.05,0.24-0.14,0.35-0.26c0.11-0.12,0.19-0.27,0.23-0.43
				c0.04-0.17,0.06-0.36,0.06-0.57h1.35c-0.01,0.4-0.07,0.76-0.18,1.07c-0.11,0.31-0.28,0.59-0.53,0.85
				c-0.41,0.42-0.98,0.63-1.7,0.63c-0.37,0-0.69-0.05-0.97-0.15c-0.28-0.1-0.53-0.27-0.75-0.52c-0.32-0.34-0.53-0.84-0.63-1.48
				c-0.09-0.64-0.14-1.41-0.14-2.31c0-0.91,0.04-1.68,0.13-2.32c0.09-0.63,0.29-1.12,0.62-1.47c0.22-0.24,0.47-0.42,0.75-0.52
				c0.28-0.1,0.59-0.15,0.95-0.15c0.36,0,0.67,0.05,0.95,0.15c0.28,0.1,0.53,0.27,0.75,0.52c0.32,0.34,0.53,0.85,0.63,1.51
				c0.09,0.66,0.14,1.53,0.14,2.59H142.5z M144.68,24.36c0-0.63-0.02-1.12-0.07-1.45c-0.04-0.33-0.13-0.58-0.27-0.73
				c-0.09-0.11-0.19-0.2-0.31-0.26c-0.12-0.06-0.27-0.09-0.46-0.09c-0.19,0-0.34,0.03-0.45,0.09c-0.11,0.06-0.21,0.15-0.3,0.26
				c-0.13,0.16-0.22,0.4-0.27,0.73c-0.04,0.33-0.07,0.82-0.07,1.45H144.68z"/>
			<path class="st1" d="M150.45,20.61c0.32,0,0.6,0.05,0.83,0.16c0.23,0.11,0.44,0.26,0.63,0.48c0.18,0.19,0.31,0.42,0.39,0.68
				c0.08,0.27,0.12,0.63,0.12,1.1v6.35h-1.35v-6.35c0-0.39-0.1-0.69-0.3-0.9c-0.2-0.21-0.44-0.32-0.73-0.32
				c-0.29,0-0.53,0.11-0.73,0.32c-0.19,0.21-0.29,0.51-0.29,0.9v6.35h-1.35v-8.64h1.3v0.67c0.06-0.1,0.14-0.2,0.24-0.3
				c0.11-0.1,0.2-0.18,0.29-0.23C149.81,20.7,150.12,20.61,150.45,20.61z"/>
			<path class="st1" d="M157.32,29.38c-0.39,0-0.75-0.03-1.08-0.09c-0.33-0.06-0.63-0.21-0.91-0.44c-0.5-0.41-0.75-1.06-0.75-1.93
				v-5.12h-0.98v-1.05h0.98v-2.37h1.35v2.37h1.33v1.05h-1.33v5.07c0,0.47,0.12,0.8,0.35,1c0.23,0.2,0.58,0.3,1.03,0.3V29.38z"/>
			<path class="st1" d="M160.07,19.21h-1.58v-1.57h1.58V19.21z M159.95,29.38h-1.35v-8.64h1.35V29.38z"/>
			<path class="st1" d="M164.62,20.61c0.32,0,0.6,0.05,0.83,0.16c0.23,0.11,0.44,0.26,0.63,0.48c0.18,0.19,0.31,0.42,0.39,0.68
				c0.08,0.27,0.12,0.63,0.12,1.1v6.35h-1.35v-6.35c0-0.39-0.1-0.69-0.3-0.9c-0.2-0.21-0.44-0.32-0.73-0.32
				c-0.29,0-0.53,0.11-0.73,0.32c-0.19,0.21-0.29,0.51-0.29,0.9v6.35h-1.35v-8.64h1.3v0.67c0.06-0.1,0.14-0.2,0.24-0.3
				c0.11-0.1,0.2-0.18,0.29-0.23C163.98,20.7,164.29,20.61,164.62,20.61z"/>
			<path class="st1" d="M170.26,20.61c0.38,0,0.69,0.09,0.93,0.27c0.09,0.06,0.18,0.13,0.27,0.21c0.09,0.08,0.17,0.17,0.23,0.26
				v-0.6h1.3v8.94c0,0.63-0.06,1.13-0.17,1.49c-0.11,0.36-0.29,0.67-0.53,0.93c-0.19,0.2-0.44,0.36-0.74,0.48
				c-0.31,0.12-0.63,0.18-0.96,0.18c-0.33,0-0.65-0.05-0.94-0.15c-0.29-0.1-0.55-0.26-0.78-0.47c-0.24-0.24-0.42-0.52-0.52-0.83
				c-0.1-0.31-0.15-0.66-0.15-1.03h1.35c0,0.22,0.02,0.42,0.06,0.58c0.04,0.17,0.12,0.32,0.24,0.45c0.09,0.1,0.19,0.17,0.32,0.21
				c0.12,0.04,0.26,0.06,0.42,0.06c0.31,0,0.56-0.1,0.73-0.3c0.12-0.13,0.21-0.32,0.25-0.56c0.04-0.24,0.07-0.56,0.07-0.96V28.5
				c-0.12,0.19-0.28,0.35-0.47,0.48c-0.26,0.19-0.56,0.28-0.92,0.28c-0.57,0-1.03-0.22-1.4-0.65c-0.13-0.16-0.24-0.34-0.33-0.54
				c-0.09-0.21-0.16-0.45-0.21-0.74c-0.05-0.29-0.09-0.63-0.11-1.03c-0.02-0.39-0.03-0.85-0.03-1.38c0-0.53,0.01-0.99,0.03-1.38
				c0.02-0.39,0.06-0.73,0.11-1.03c0.05-0.29,0.12-0.54,0.21-0.75c0.09-0.21,0.2-0.39,0.33-0.54c0.19-0.21,0.39-0.37,0.62-0.47
				C169.69,20.66,169.96,20.61,170.26,20.61z M170.61,21.81c-0.16,0-0.29,0.03-0.42,0.1c-0.12,0.07-0.23,0.16-0.32,0.27
				c-0.08,0.09-0.14,0.2-0.18,0.34c-0.04,0.14-0.08,0.32-0.11,0.53c-0.03,0.22-0.04,0.48-0.05,0.78c-0.01,0.31-0.01,0.68-0.01,1.11
				c0,0.43,0,0.8,0.01,1.11c0.01,0.31,0.02,0.57,0.05,0.78c0.03,0.22,0.06,0.39,0.11,0.53c0.04,0.14,0.11,0.25,0.18,0.34
				c0.09,0.1,0.19,0.18,0.32,0.25c0.12,0.07,0.26,0.1,0.42,0.1c0.28,0,0.52-0.09,0.72-0.27c0.21-0.21,0.32-0.54,0.32-1v-3.72
				c0-0.44-0.11-0.77-0.32-0.98C171.13,21.91,170.9,21.81,170.61,21.81z"/>
			<path class="st1" d="M179.36,21.34c0.07-0.09,0.14-0.18,0.23-0.26c0.08-0.08,0.17-0.15,0.26-0.21c0.26-0.18,0.57-0.27,0.93-0.27
				c0.3,0,0.57,0.05,0.8,0.15c0.23,0.1,0.44,0.26,0.63,0.48c0.29,0.32,0.47,0.78,0.53,1.38c0.07,0.6,0.1,1.41,0.1,2.43
				c0,0.51-0.01,0.96-0.02,1.36c-0.01,0.39-0.04,0.75-0.08,1.06c-0.04,0.31-0.11,0.58-0.19,0.8c-0.08,0.22-0.2,0.42-0.34,0.58
				c-0.37,0.43-0.84,0.65-1.43,0.65c-0.19,0-0.36-0.02-0.51-0.07c-0.15-0.04-0.29-0.11-0.43-0.2c-0.09-0.06-0.18-0.14-0.28-0.24
				c-0.1-0.11-0.18-0.2-0.23-0.29v0.67h-1.32V17.51h1.35V21.34z M180.39,21.81c-0.28,0-0.51,0.09-0.7,0.28
				c-0.11,0.11-0.19,0.24-0.25,0.4c-0.06,0.16-0.08,0.35-0.08,0.58v3.95c0,0.44,0.11,0.78,0.33,1c0.19,0.19,0.42,0.28,0.7,0.28
				c0.16,0,0.29-0.03,0.42-0.1c0.12-0.07,0.23-0.16,0.32-0.27c0.14-0.18,0.24-0.48,0.28-0.91c0.04-0.43,0.07-1.09,0.07-1.98
				c0-0.44-0.01-0.83-0.02-1.15c-0.01-0.32-0.03-0.6-0.05-0.83c-0.02-0.23-0.06-0.41-0.1-0.56c-0.04-0.14-0.11-0.26-0.18-0.35
				c-0.09-0.11-0.19-0.2-0.32-0.27C180.69,21.84,180.55,21.81,180.39,21.81z"/>
			<path class="st1" d="M185.56,25.38c0,0.69,0.02,1.24,0.06,1.65c0.04,0.41,0.14,0.71,0.29,0.9c0.08,0.11,0.18,0.2,0.31,0.27
				c0.13,0.07,0.28,0.1,0.46,0.1c0.16,0,0.29-0.03,0.42-0.08c0.12-0.05,0.24-0.14,0.35-0.26c0.11-0.12,0.19-0.27,0.23-0.43
				c0.04-0.17,0.06-0.36,0.06-0.57h1.35c-0.01,0.4-0.07,0.76-0.18,1.07c-0.11,0.31-0.28,0.59-0.53,0.85
				c-0.41,0.42-0.98,0.63-1.7,0.63c-0.37,0-0.69-0.05-0.97-0.15c-0.28-0.1-0.53-0.27-0.75-0.52c-0.32-0.34-0.53-0.84-0.63-1.48
				c-0.09-0.64-0.14-1.41-0.14-2.31c0-0.91,0.04-1.68,0.13-2.32c0.09-0.63,0.29-1.12,0.62-1.47c0.22-0.24,0.47-0.42,0.75-0.52
				c0.28-0.1,0.59-0.15,0.95-0.15c0.36,0,0.67,0.05,0.95,0.15c0.28,0.1,0.53,0.27,0.75,0.52c0.32,0.34,0.53,0.85,0.63,1.51
				c0.09,0.66,0.14,1.53,0.14,2.59H185.56z M187.74,24.36c0-0.63-0.02-1.12-0.07-1.45c-0.04-0.33-0.13-0.58-0.27-0.73
				c-0.09-0.11-0.19-0.2-0.31-0.26c-0.12-0.06-0.27-0.09-0.46-0.09c-0.19,0-0.34,0.03-0.45,0.09c-0.11,0.06-0.21,0.15-0.3,0.26
				c-0.13,0.16-0.22,0.4-0.27,0.73c-0.04,0.33-0.07,0.82-0.07,1.45H187.74z"/>
			<path class="st1" d="M193.8,29.38c-0.39,0-0.75-0.03-1.08-0.09c-0.33-0.06-0.63-0.21-0.91-0.44c-0.5-0.41-0.75-1.06-0.75-1.93
				v-5.12h-0.98v-1.05h0.98v-2.37h1.35v2.37h1.33v1.05h-1.33v5.07c0,0.47,0.12,0.8,0.35,1c0.23,0.2,0.58,0.3,1.03,0.3V29.38z"/>
			<path class="st1" d="M198.13,29.38c-0.39,0-0.75-0.03-1.08-0.09c-0.33-0.06-0.63-0.21-0.91-0.44c-0.5-0.41-0.75-1.06-0.75-1.93
				v-5.12h-0.98v-1.05h0.98v-2.37h1.35v2.37h1.33v1.05h-1.33v5.07c0,0.47,0.12,0.8,0.35,1c0.23,0.2,0.58,0.3,1.03,0.3V29.38z"/>
			<path class="st1" d="M200.5,25.38c0,0.69,0.02,1.24,0.06,1.65c0.04,0.41,0.14,0.71,0.29,0.9c0.08,0.11,0.18,0.2,0.31,0.27
				c0.13,0.07,0.28,0.1,0.46,0.1c0.16,0,0.29-0.03,0.42-0.08c0.12-0.05,0.24-0.14,0.35-0.26c0.11-0.12,0.19-0.27,0.23-0.43
				c0.04-0.17,0.06-0.36,0.06-0.57h1.35c-0.01,0.4-0.07,0.76-0.18,1.07c-0.11,0.31-0.28,0.59-0.53,0.85
				c-0.41,0.42-0.98,0.63-1.7,0.63c-0.37,0-0.69-0.05-0.97-0.15c-0.28-0.1-0.53-0.27-0.75-0.52c-0.32-0.34-0.53-0.84-0.63-1.48
				c-0.09-0.64-0.14-1.41-0.14-2.31c0-0.91,0.04-1.68,0.13-2.32c0.09-0.63,0.29-1.12,0.62-1.47c0.22-0.24,0.47-0.42,0.75-0.52
				c0.28-0.1,0.59-0.15,0.95-0.15c0.36,0,0.67,0.05,0.95,0.15c0.28,0.1,0.53,0.27,0.75,0.52c0.32,0.34,0.53,0.85,0.63,1.51
				c0.09,0.66,0.14,1.53,0.14,2.59H200.5z M202.68,24.36c0-0.63-0.02-1.12-0.07-1.45c-0.04-0.33-0.13-0.58-0.27-0.73
				c-0.09-0.11-0.19-0.2-0.31-0.26c-0.12-0.06-0.27-0.09-0.46-0.09c-0.19,0-0.34,0.03-0.45,0.09c-0.11,0.06-0.21,0.15-0.3,0.26
				c-0.13,0.16-0.22,0.4-0.27,0.73c-0.04,0.33-0.07,0.82-0.07,1.45H202.68z"/>
			<path class="st1" d="M209,21.91h-0.4c-0.47,0-0.84,0.14-1.13,0.42c-0.29,0.28-0.43,0.67-0.43,1.17v5.89h-1.35v-8.64h1.3v0.92
				c0.07-0.12,0.16-0.24,0.27-0.34c0.11-0.11,0.22-0.2,0.33-0.28c0.41-0.29,0.88-0.43,1.42-0.43V21.91z"/>
		</g>
		<g>
			<path class="st1" d="M85.75,9.79c-0.71,1.62-2.25,2.83-4.43,2.83c-3.46,0-4.95-2.83-4.98-4.95V7.64c0-2.67,1.94-5.03,4.92-5.03
				c2.28,0,3.88,1.28,4.56,2.93c0.31,0.66,0.45,1.39,0.42,2.12C86.22,8.4,86.06,9.14,85.75,9.79 M88.95,0.45
				c0-0.25-0.2-0.45-0.45-0.45h-1.82c-0.25,0-0.46,0.2-0.46,0.45v2.56c-0.66-1.36-2.46-2.93-5.29-2.93c-4.14,0-7.31,3.2-7.31,7.54
				c0,3.98,2.72,7.54,7.31,7.54c2.25,0,4.3-1,5.29-2.91v2.45c0,0.25,0.21,0.45,0.46,0.45h1.82c0.25,0,0.45-0.2,0.45-0.45V0.48v0
				V0.45z"/>
			<path class="st1" d="M29.66,1.52c-1.05-1.07-2.51-1.44-3.82-1.44c-1.55,0-2.86,0.58-3.77,1.49c-0.5,0.5-0.79,1-1.02,1.42
				c-0.16-0.26-0.55-1.02-0.92-1.39c-1-1.13-2.36-1.52-3.67-1.52c-2.07,0-3.72,1.23-4.32,2.44c0,0,0-2.05,0-2.06
				c0-0.25-0.2-0.45-0.45-0.45h-1.66C9.77,0,9.57,0.2,9.57,0.45V14.7c0,0.25,0.2,0.45,0.45,0.45h1.81h0c0.25,0,0.45-0.2,0.46-0.45
				V6.94c0-1.15,0.24-2.15,0.76-2.91c0.47-0.79,1.42-1.42,2.7-1.39c1.34,0.03,2.17,0.58,2.7,1.41c0.47,0.79,0.6,1.65,0.58,2.83v7.78
				c0,0.01,0,0.02,0,0.04c0,0.25,0.2,0.45,0.45,0.45h1.89l0,0c0.23-0.02,0.42-0.21,0.42-0.45c0,0,0-0.01,0-0.01v-7.8
				c0-1.2,0.08-1.99,0.66-2.88c0.52-0.87,1.55-1.36,2.75-1.36c1.28,0,2.04,0.45,2.54,1.18c0.63,0.81,0.79,1.99,0.79,3.17v7.51
				c0,0,0,0.2,0,0.21c0,0.25,0.2,0.45,0.45,0.45h1.84c0.24-0.01,0.44-0.21,0.44-0.45V6.89C31.23,4.16,30.91,2.8,29.66,1.52"/>
			<path class="st1" d="M45.08,9.79c-0.71,1.62-2.25,2.83-4.43,2.83c-3.46,0-4.95-2.83-4.98-4.95V7.64c0-2.67,1.94-5.03,4.92-5.03
				c2.28,0,3.88,1.28,4.56,2.93c0.32,0.66,0.44,1.39,0.42,2.12C45.55,8.4,45.4,9.14,45.08,9.79 M48.28,0.45
				c0-0.25-0.2-0.45-0.45-0.45h-1.82c-0.25,0-0.45,0.2-0.45,0.45l0,0v2.56c-0.66-1.36-2.46-2.93-5.29-2.93
				c-4.14,0-7.31,3.2-7.31,7.54c0,3.98,2.72,7.54,7.31,7.54c2.25,0,4.3-1,5.29-2.91v2.45c0,0.25,0.21,0.45,0.46,0.45h1.82
				c0.25,0,0.45-0.2,0.45-0.45V0.48V0.45z"/>
			<path class="st1" d="M59.69,14.7c0,0.25,0.2,0.45,0.45,0.45h1.89c0.23-0.02,0.42-0.22,0.42-0.45v-0.01l0-7.81
				c0-1.2,0.08-1.99,0.66-2.88c0.52-0.87,1.55-1.36,2.75-1.36c1.28,0,2.04,0.44,2.54,1.18c0.63,0.81,0.79,1.99,0.79,3.17
				c0,0,0,7.71,0,7.71c0,0.25,0.2,0.45,0.45,0.45h1.84c0.24-0.01,0.44-0.21,0.44-0.45V6.89c0-2.72-0.31-4.09-1.57-5.37
				c-1.05-1.07-2.51-1.44-3.83-1.44c-1.55,0-2.86,0.58-3.77,1.49c-0.5,0.5-0.79,1-1.02,1.42c-0.16-0.26-0.55-1.02-0.92-1.39
				c-1-1.13-2.36-1.52-3.67-1.52c-2.07,0-3.72,1.23-4.32,2.44l0-2.06c0,0,0,0,0,0C52.8,0.2,52.6,0,52.35,0h-1.66
				c-0.25,0-0.45,0.2-0.45,0.45V14.7c0,0.25,0.2,0.45,0.45,0.45h1.82c0.25,0,0.45-0.2,0.46-0.45V6.94c0-1.15,0.24-2.15,0.76-2.91
				c0.47-0.79,1.42-1.42,2.7-1.39c1.34,0.03,2.17,0.58,2.7,1.41c0.47,0.79,0.6,1.65,0.58,2.83L59.69,14.7z"/>
			<path class="st1" d="M96.14,6.13c-1.52-0.42-2.54-0.94-2.59-2.07c-0.03-0.94,0.71-1.83,2.04-1.83c1.22-0.02,1.89,0.62,2.04,1.52
				c0,0,0,0,0,0c0.03,0.22,0.22,0.39,0.45,0.39h0.01h1.76h0.01c0.25,0,0.45-0.2,0.45-0.45c0-0.01,0-0.04,0-0.05
				c0-0.01-0.01-0.05-0.01-0.07C99.83,0.86,97.46,0,95.62,0c-2.59,0-4.79,1.62-4.79,4.32c0.03,2.15,1.6,3.09,3.59,3.69
				c2.54,0.84,3.61,1.31,3.64,2.72c0,1.21-1.02,2.12-2.33,2.12c-0.94,0-2.2-0.49-2.47-1.92c-0.04-0.22-0.22-0.38-0.45-0.38h0h-1.8h0
				c-0.25,0-0.45,0.2-0.45,0.45c0,0.02,0,0.04,0.01,0.06c0,0,0.01,0.03,0.01,0.04c0.41,2.83,3.02,3.97,5.13,3.97
				c2.83,0,5.13-1.89,5.08-4.66C100.7,7.36,98.32,6.73,96.14,6.13"/>
			<path class="st1" d="M29.95,25.01c0,2.62-1.85,4.75-4.48,4.98h-3.79v-9.96h3.79c2.99,0.25,4.48,2.74,4.48,4.95V25.01z
				 M25.49,17.46c-0.01,0-0.02,0-0.03,0h-5.9c0,0-0.01,0-0.01,0c-0.25,0-0.45,0.2-0.45,0.45c0,0.02,0,0.03,0,0.05v19.55
				c0,0.01,0,0.02,0,0.03c0,0.25,0.2,0.45,0.45,0.45h1.68c0.25,0,0.45-0.2,0.45-0.45c0-0.01,0-0.02,0-0.03l0-4.96h3.84v0h0.01
				c4.27,0,7.18-3.43,7.18-7.47C32.7,21.55,30.39,17.46,25.49,17.46"/>
			<path class="st1" d="M96.59,19.29c0.34,0,0.67-0.01,0.67-0.39c0-0.31-0.26-0.38-0.53-0.38l-0.5,0v0.77L96.59,19.29z M96.23,20.51
				h-0.28v-2.23h0.86c0.5,0,0.73,0.22,0.73,0.62c0,0.39-0.26,0.57-0.56,0.62l0.67,0.99h-0.32l-0.63-0.99h-0.46L96.23,20.51z
				 M95.02,19.4c0,0.92,0.7,1.66,1.63,1.66c0.93,0,1.63-0.73,1.63-1.66c0-0.92-0.7-1.66-1.63-1.66
				C95.72,17.74,95.02,18.47,95.02,19.4 M98.59,19.4c0,1.08-0.84,1.93-1.93,1.93c-1.09,0-1.93-0.85-1.93-1.93
				c0-1.09,0.84-1.93,1.93-1.93C97.74,17.46,98.59,18.31,98.59,19.4"/>
			<path class="st1" d="M7.03,30c-2.34,0-4.25-1.93-4.25-4.31c0-2.6,2.25-3.97,4.04-4.78l5.15,4.94C10.84,28.21,9.73,30,7.03,30
				 M17.14,21.47C17.14,21.47,17.14,21.47,17.14,21.47l0-3.54c0-0.25-0.2-0.46-0.45-0.46h0h-0.17h-0.01c-0.19,0-0.34,0.1-0.41,0.26
				l-0.01,0.01l-2.7,5.83l-4.64-4.44l-0.07-0.07l-1.78-1.68l-0.03-0.02c-0.08-0.07-0.15-0.14-0.23-0.21
				c-1.02-0.96-1.83-1.71-1.83-3.15c0-1.4,0.99-2.56,2.38-2.8c0,0,0,0,0.01,0c0.22-0.03,0.39-0.22,0.39-0.44v0V9.2l0,0
				c0-0.25-0.2-0.45-0.45-0.45c-0.01,0-0.02,0-0.03,0c-2.82,0.28-4.92,2.54-4.92,5.32c0,2.22,1.16,3.48,2.67,4.9l0.14,0.13
				C1.64,20.87,0,23.05,0,25.75c0,3.72,3.08,6.75,6.87,6.75c1.75,0,3.19-0.48,4.41-1.46c0.96-0.77,1.78-1.85,2.57-3.38l2.52,2.51
				l0.01,0c0.08,0.08,0.19,0.13,0.32,0.13c0.25,0,0.45-0.2,0.45-0.45v-2.36c0-0.13-0.06-0.25-0.15-0.34l0,0l-1.69-1.68l1.8-3.8
				C17.12,21.61,17.14,21.54,17.14,21.47"/>
			<path class="st1" d="M89.54,23.59c-1.52-0.42-2.54-0.94-2.59-2.07c-0.03-0.94,0.71-1.83,2.04-1.83c1.22-0.02,1.89,0.62,2.04,1.52
				c0,0,0,0,0,0c0.03,0.22,0.22,0.39,0.45,0.39h0.01h1.76h0.01c0.25,0,0.45-0.2,0.45-0.45c0-0.01,0-0.04,0-0.05
				c0-0.01-0.01-0.05-0.01-0.07c-0.46-2.72-2.83-3.57-4.67-3.57c-2.59,0-4.79,1.62-4.79,4.32c0.03,2.15,1.6,3.09,3.59,3.69
				c2.54,0.84,3.61,1.31,3.64,2.72c0,1.21-1.02,2.12-2.33,2.12c-0.94,0-2.2-0.49-2.47-1.92c-0.04-0.22-0.22-0.38-0.45-0.38h0h-1.8h0
				c-0.25,0-0.45,0.2-0.45,0.45c0,0.02,0,0.04,0.01,0.06c0,0,0.01,0.03,0.01,0.04c0.41,2.83,3.02,3.97,5.13,3.97
				c2.83,0,5.13-1.89,5.08-4.66C94.1,24.83,91.72,24.2,89.54,23.59"/>
			<path class="st1" d="M79.15,27.26c-0.71,1.62-2.25,2.83-4.43,2.83c-3.46,0-4.95-2.83-4.98-4.95v-0.03c0-2.67,1.94-5.03,4.92-5.03
				c2.28,0,3.88,1.28,4.56,2.93c0.31,0.66,0.45,1.39,0.42,2.12C79.62,25.87,79.46,26.6,79.15,27.26 M82.35,17.92
				c0-0.25-0.2-0.45-0.45-0.45h-1.82c-0.25,0-0.46,0.2-0.46,0.45v2.56c-0.66-1.36-2.46-2.93-5.29-2.93c-4.14,0-7.31,3.2-7.31,7.54
				c0,3.98,2.72,7.54,7.31,7.54c2.25,0,4.3-1,5.29-2.91v2.45c0,0.25,0.21,0.45,0.46,0.45h1.82c0.25,0,0.45-0.2,0.45-0.45V17.94v0
				V17.92z"/>
			<path class="st1" d="M46.55,27.26c-0.71,1.62-2.25,2.83-4.43,2.83c-3.46,0-4.95-2.83-4.98-4.95v-0.03c0-2.67,1.94-5.03,4.92-5.03
				c2.28,0,3.88,1.28,4.56,2.93c0.31,0.66,0.45,1.39,0.42,2.12C47.02,25.87,46.86,26.6,46.55,27.26 M49.74,17.92
				c0-0.25-0.2-0.45-0.45-0.45h-1.82c-0.25,0-0.46,0.2-0.46,0.45v2.56c-0.66-1.36-2.46-2.93-5.29-2.93c-4.14,0-7.31,3.2-7.31,7.54
				c0,3.98,2.73,7.54,7.31,7.54c2.25,0,4.3-1,5.29-2.91v2.45c0,0.25,0.21,0.45,0.46,0.45h1.82c0.25,0,0.45-0.2,0.45-0.45V17.94v0
				V17.92z"/>
			<path class="st1" d="M62.55,25.01c0,2.62-1.85,4.75-4.48,4.98h-3.79v-9.96h3.79c2.99,0.25,4.48,2.74,4.48,4.95V25.01z
				 M58.1,17.46c-0.01,0-0.02,0-0.03,0h-5.9c0,0-0.01,0-0.01,0c-0.25,0-0.45,0.2-0.45,0.45c0,0.02,0,0.03,0,0.05l0,19.55
				c0,0.01,0,0.02,0,0.03c0,0.25,0.2,0.45,0.45,0.45h1.68c0.25,0,0.45-0.2,0.45-0.45c0-0.01,0-0.02,0-0.03l0-4.96h3.84v0h0.01
				c4.27,0,7.18-3.43,7.18-7.47C65.3,21.55,62.99,17.46,58.1,17.46"/>
		</g>
	</g>
</g>
</svg>
