<svg id="Layer_1" data-name="Layer 1" xmlns="http://www.w3.org/2000/svg" viewBox="0 0 487.31 91.97"><defs><style>.cls-1{fill:#231f20;}</style></defs><title>Artboard 1</title><path class="cls-1" d="M168.8,62.43c0,15.44-8.33,25-21.76,25s-20.65-8.64-20.65-23.76V2.56l-9.05,2.8V61.82c0,18.63,10.67,29.75,28.54,29.75,16.66,0,27-11,27-28.7V2.52L168.8,3.88Z"/><polygon class="cls-1" points="249.84 3.74 249.84 73.67 207.49 2.65 207.41 2.52 203.43 3.85 203.43 90.15 207.57 88.77 207.57 19.05 250.04 90.3 254.25 88.99 254.25 2.51 253.85 2.51 249.84 3.74"/><path class="cls-1" d="M75.69,74.7l-.14.15-.48.5c-18.85,18.87-43.15,8.56-54.68-3C13.33,65.3,8.53,56.1,7.23,47.13,5.61,36,9.32,25.59,18,16.95l0,0C25.3,9.59,33.89,5.81,43.1,5.81a34.8,34.8,0,0,1,5,.37c9,1.31,18.14,6.11,25.2,13.18a46,46,0,0,1,13,25.19A32.93,32.93,0,0,1,76.62,73.8l-.52.5-.14.13h0l-.28.28ZM49.25-.06h-.59A47.86,47.86,0,0,0,15.28,14.2l0,0A48,48,0,0,0,1,47.67,44.06,44.06,0,0,0,13.45,79.31,44.06,44.06,0,0,0,44.52,92h.34A47.89,47.89,0,0,0,78.3,77.64h0l.14-.14A48.06,48.06,0,0,0,92.89,43.86,44.21,44.21,0,0,0,80.25,12.41a43.87,43.87,0,0,0-31-12.47"/><path class="cls-1" d="M390.9,40.9h0c-15.47-7.11-19.25-11-19.25-19.77s6.82-15.52,16.21-15.52a18.28,18.28,0,0,1,17.52,12.6l.51,1.68,6.33-4.57-.44-.94C408.37,7,398.94,1.84,388.88,1.84c-13.74,0-24.11,9.45-24.11,22,0,10.71,6.54,18,22.58,25.17,15.38,6.89,20.08,11.6,20.08,20.12,0,10.07-7.55,17.35-18.78,17.35-8.89,0-17.77-6.24-20.23-13.55l-.54-1.6-6.32,4.44.56,1c4.35,7.71,15.44,13.52,25.8,13.52,15.53,0,26.8-10.57,26.8-24.33,0-10.61-6-16.94-23.83-25.05"/><path class="cls-1" d="M463.48,40.9h0c-15.47-7.11-19.25-11-19.25-19.77S451,5.61,460.44,5.61A18.28,18.28,0,0,1,478,18.2l.51,1.68,6.33-4.57-.44-.94C480.95,7,471.52,1.84,461.46,1.84c-13.74,0-24.11,9.45-24.11,22,0,10.71,6.54,18,22.58,25.17C475.32,55.89,480,60.6,480,69.12c0,10.07-7.55,17.35-18.78,17.35-8.89,0-17.77-6.24-20.23-13.55l-.54-1.6-6.32,4.44.56,1c4.35,7.71,15.44,13.52,25.8,13.52,15.53,0,26.8-10.57,26.8-24.33,0-10.61-6-16.94-23.83-25.05"/><path class="cls-1" d="M322.73,56.79H294.55l14-40.69ZM313,2.47l-4.41,1.46L278.87,89.62l-.13.37,5-1.64,9.64-27.85h30.55l10.42,29.57,8.58-2.66L313.11,2.65Z"/></svg>